<mxfile host="app.diagrams.net" agent="Mozilla/5.0 (Windows NT 10.0; Win64; x64) AppleWebKit/537.36 (KHTML, like Gecko) Chrome/132.0.0.0 Safari/537.36" version="26.0.11">
  <diagram name="Page-1" id="e7e014a7-5840-1c2e-5031-d8a46d1fe8dd">
    <mxGraphModel dx="1434" dy="830" grid="1" gridSize="10" guides="1" tooltips="1" connect="1" arrows="1" fold="1" page="1" pageScale="1" pageWidth="1169" pageHeight="826" background="none" math="0" shadow="0">
      <root>
        <mxCell id="0" />
        <mxCell id="1" parent="0" />
        <mxCell id="4upIoDMnJveeBpPhWL7n-53" value="Amount&amp;nbsp;" style="rounded=0;whiteSpace=wrap;html=1;" vertex="1" parent="1">
          <mxGeometry x="280" y="320" width="260" height="30" as="geometry" />
        </mxCell>
        <mxCell id="4upIoDMnJveeBpPhWL7n-56" style="edgeStyle=none;curved=1;rounded=0;orthogonalLoop=1;jettySize=auto;html=1;fontSize=12;startSize=8;endSize=8;entryX=1;entryY=0.5;entryDx=0;entryDy=0;" edge="1" parent="1" source="4upIoDMnJveeBpPhWL7n-54" target="4upIoDMnJveeBpPhWL7n-54">
          <mxGeometry relative="1" as="geometry">
            <mxPoint x="700" y="380" as="targetPoint" />
          </mxGeometry>
        </mxCell>
        <mxCell id="4upIoDMnJveeBpPhWL7n-54" value="- amount: float&amp;nbsp;&lt;br&gt;&amp;nbsp;- timestamp: datetime&amp;nbsp;&lt;br&gt;- transaction_type: str" style="rounded=0;whiteSpace=wrap;html=1;" vertex="1" parent="1">
          <mxGeometry x="280" y="350" width="260" height="60" as="geometry" />
        </mxCell>
        <mxCell id="4upIoDMnJveeBpPhWL7n-55" value="+ __init__(amount: float, transaction_type: str)&amp;nbsp; &amp;nbsp; &amp;nbsp; + __str__(): str |" style="rounded=0;whiteSpace=wrap;html=1;" vertex="1" parent="1">
          <mxGeometry x="280" y="410" width="260" height="60" as="geometry" />
        </mxCell>
        <mxCell id="4upIoDMnJveeBpPhWL7n-72" value="&lt;p style=&quot;margin:0px;margin-top:4px;text-align:center;&quot;&gt;PersonalAccount&amp;nbsp;&lt;/p&gt;&lt;hr size=&quot;1&quot; style=&quot;border-style:solid;&quot;&gt;&lt;p style=&quot;margin:0px;margin-left:4px;&quot;&gt;&amp;nbsp;- account_number: int&amp;nbsp;&lt;/p&gt;&lt;p style=&quot;margin:0px;margin-left:4px;&quot;&gt;&amp;nbsp;- account_holder: str&amp;nbsp;&lt;br&gt;&amp;nbsp; - balance: float&amp;nbsp; - transactions: list&amp;nbsp;&amp;nbsp;&lt;/p&gt;&lt;hr size=&quot;1&quot; style=&quot;border-style:solid;&quot;&gt;&lt;p style=&quot;margin:0px;margin-left:4px;&quot;&gt;+ __init__(account_number: int, account_holder: str)&amp;nbsp;&lt;br&gt;&amp;nbsp;+ deposit(amount: float)&lt;br&gt;&amp;nbsp;+ withdraw(amount: float)&amp;nbsp;&lt;br&gt;&amp;nbsp;+ print_transaction_history()&amp;nbsp;&lt;br&gt;&amp;nbsp;+ get_balance(): float&amp;nbsp;&lt;br&gt;&amp;nbsp;+ get_account_number(): int&amp;nbsp;&lt;br&gt;&amp;nbsp;+ set_account_number(account_number: int)&lt;br&gt;&amp;nbsp;+ get_account_holder(): str&amp;nbsp;&lt;br&gt;&amp;nbsp;+ set_account_holder(account_holder: str)&amp;nbsp;&lt;br&gt;&amp;nbsp;+ __str__(): str&amp;nbsp;&lt;br&gt;&amp;nbsp;+ __add__(amount: float)&amp;nbsp;&lt;br&gt;&amp;nbsp;+ __sub__(amount: float)&lt;/p&gt;" style="verticalAlign=top;align=left;overflow=fill;html=1;whiteSpace=wrap;" vertex="1" parent="1">
          <mxGeometry x="620" y="320" width="310" height="270" as="geometry" />
        </mxCell>
      </root>
    </mxGraphModel>
  </diagram>
</mxfile>
